<svg width="166" height="54" viewBox="0 0 166 54" fill="none" xmlns="http://www.w3.org/2000/svg">
<rect width="166" height="54" rx="15" fill="#3369D1"/>
<path d="M73.0542 27.555H69.3372V32H67.8252V21.675H73.6772V22.935H69.3372V26.295H73.0542V27.555ZM77.2999 32.147C76.4599 32.147 75.7809 31.951 75.2629 31.559C74.7495 31.167 74.4929 30.621 74.4929 29.921C74.4929 29.4217 74.6235 29.0087 74.8849 28.682C75.1509 28.3554 75.5149 28.1034 75.9769 27.926C76.4435 27.744 76.9732 27.625 77.5659 27.569C78.4432 27.4804 79.0639 27.394 79.4279 27.31C79.7919 27.226 79.9739 27.0884 79.9739 26.897V26.883C79.9739 26.505 79.8129 26.218 79.4909 26.022C79.1689 25.826 78.7092 25.728 78.1119 25.728C77.4819 25.728 76.9942 25.84 76.6489 26.064C76.3082 26.2834 76.1379 26.6334 76.1379 27.114H74.6469C74.6469 26.5447 74.7939 26.0617 75.0879 25.665C75.3865 25.2684 75.7972 24.9674 76.3199 24.762C76.8425 24.552 77.4422 24.447 78.1189 24.447C78.7395 24.447 79.3042 24.5427 79.8129 24.734C80.3262 24.9207 80.7345 25.2007 81.0379 25.574C81.3412 25.9474 81.4929 26.4117 81.4929 26.967V30.516C81.4929 30.6887 81.4975 30.8567 81.5069 31.02C81.5209 31.1787 81.5489 31.321 81.5909 31.447C81.6329 31.5917 81.6819 31.713 81.7379 31.811C81.7985 31.9044 81.8475 31.9674 81.8849 32H80.3729C80.3449 31.972 80.3029 31.9137 80.2469 31.825C80.1955 31.7317 80.1489 31.6244 80.1069 31.503C80.0695 31.4004 80.0415 31.2837 80.0229 31.153C79.7569 31.4564 79.3882 31.699 78.9169 31.881C78.4502 32.0584 77.9112 32.147 77.2999 32.147ZM77.6149 30.887C78.0489 30.887 78.4455 30.8194 78.8049 30.684C79.1642 30.544 79.4489 30.334 79.6589 30.054C79.8735 29.7694 79.9809 29.4124 79.9809 28.983V28.339C79.6915 28.423 79.3672 28.493 79.0079 28.549C78.6485 28.6004 78.2822 28.6447 77.9089 28.682C77.2789 28.7427 76.8052 28.8524 76.4879 29.011C76.1705 29.1697 76.0119 29.4357 76.0119 29.809C76.0119 30.5277 76.5462 30.887 77.6149 30.887ZM86.9421 32.147C86.1908 32.147 85.5211 31.9907 84.9331 31.678C84.3451 31.3607 83.8808 30.9127 83.5401 30.334C83.2041 29.7507 83.0361 29.0624 83.0361 28.269C83.0361 27.4804 83.2041 26.8014 83.5401 26.232C83.8808 25.658 84.3451 25.217 84.9331 24.909C85.5211 24.601 86.1908 24.447 86.9421 24.447C87.6935 24.447 88.3328 24.594 88.8601 24.888C89.3875 25.1774 89.7911 25.5414 90.0711 25.98C90.3511 26.4187 90.4911 26.862 90.4911 27.31V27.359H88.9861C88.9861 27.3357 88.9838 27.31 88.9791 27.282C88.9745 27.2494 88.9698 27.219 88.9651 27.191C88.9045 26.7804 88.6945 26.4397 88.3351 26.169C87.9758 25.8937 87.5068 25.756 86.9281 25.756C86.4988 25.756 86.1068 25.8494 85.7521 26.036C85.3975 26.218 85.1128 26.4957 84.8981 26.869C84.6835 27.2424 84.5761 27.709 84.5761 28.269C84.5761 28.829 84.6811 29.3004 84.8911 29.683C85.1058 30.061 85.3905 30.348 85.7451 30.544C86.1045 30.74 86.4988 30.838 86.9281 30.838C87.6188 30.838 88.1251 30.6817 88.4471 30.369C88.7738 30.0564 88.9535 29.69 88.9861 29.27H90.4911C90.4911 29.7227 90.3558 30.1707 90.0851 30.614C89.8145 31.0574 89.4155 31.4237 88.8881 31.713C88.3608 32.0024 87.7121 32.147 86.9421 32.147ZM99.4492 29.662C99.4118 30.0634 99.2485 30.4554 98.9592 30.838C98.6698 31.2207 98.2568 31.5357 97.7202 31.783C97.1835 32.0304 96.5302 32.154 95.7602 32.154C94.9902 32.154 94.3112 31.9907 93.7232 31.664C93.1398 31.3374 92.6848 30.8847 92.3582 30.306C92.0315 29.7274 91.8682 29.06 91.8682 28.304C91.8682 27.5387 92.0338 26.8667 92.3652 26.288C92.6965 25.7094 93.1538 25.259 93.7372 24.937C94.3252 24.6104 95.0018 24.447 95.7672 24.447C96.5418 24.447 97.2115 24.6104 97.7762 24.937C98.3455 25.2637 98.7842 25.714 99.0922 26.288C99.4002 26.862 99.5542 27.5224 99.5542 28.269C99.5542 28.353 99.5518 28.4557 99.5472 28.577C99.5425 28.6937 99.5355 28.773 99.5262 28.815H93.3872C93.4805 29.4637 93.7348 29.97 94.1502 30.334C94.5702 30.698 95.1232 30.88 95.8092 30.88C96.2898 30.88 96.6818 30.817 96.9852 30.691C97.2932 30.565 97.5242 30.4087 97.6782 30.222C97.8322 30.0354 97.9185 29.8487 97.9372 29.662H99.4492ZM95.7812 25.707C95.1512 25.707 94.6262 25.8774 94.2062 26.218C93.7862 26.5587 93.5202 27.03 93.4082 27.632H97.9652C97.9278 27.1094 97.7272 26.659 97.3632 26.281C96.9992 25.8984 96.4718 25.707 95.7812 25.707ZM101.247 32V21.059H102.773V25.476C103.077 25.154 103.436 24.902 103.851 24.72C104.267 24.538 104.703 24.447 105.16 24.447C105.762 24.447 106.32 24.5964 106.833 24.895C107.347 25.189 107.76 25.6207 108.072 26.19C108.39 26.7594 108.548 27.4524 108.548 28.269C108.548 29.109 108.394 29.8184 108.086 30.397C107.778 30.971 107.368 31.4074 106.854 31.706C106.341 32 105.776 32.147 105.16 32.147C104.703 32.147 104.267 32.0537 103.851 31.867C103.436 31.6757 103.077 31.4144 102.773 31.083V32H101.247ZM104.866 25.777C104.502 25.777 104.162 25.8657 103.844 26.043C103.527 26.2157 103.268 26.4537 103.067 26.757C102.871 27.0604 102.773 27.4034 102.773 27.786V28.745C102.773 29.1277 102.871 29.473 103.067 29.781C103.263 30.0844 103.52 30.3247 103.837 30.502C104.159 30.6794 104.502 30.768 104.866 30.768C105.464 30.768 105.965 30.565 106.371 30.159C106.782 29.7484 106.987 29.1184 106.987 28.269C106.987 27.415 106.782 26.7874 106.371 26.386C105.965 25.98 105.464 25.777 104.866 25.777ZM113.821 32.14C113.055 32.14 112.379 31.9744 111.791 31.643C111.207 31.3117 110.75 30.8567 110.419 30.278C110.092 29.6947 109.929 29.0274 109.929 28.276C109.929 27.5294 110.092 26.869 110.419 26.295C110.75 25.7164 111.207 25.266 111.791 24.944C112.379 24.6174 113.055 24.454 113.821 24.454C114.586 24.454 115.26 24.6174 115.844 24.944C116.432 25.266 116.889 25.7164 117.216 26.295C117.547 26.869 117.713 27.5294 117.713 28.276C117.713 29.0274 117.547 29.6947 117.216 30.278C116.889 30.8567 116.432 31.3117 115.844 31.643C115.26 31.9744 114.586 32.14 113.821 32.14ZM113.821 30.838C114.521 30.838 115.09 30.6047 115.529 30.138C115.967 29.6714 116.187 29.0507 116.187 28.276C116.187 27.506 115.967 26.8947 115.529 26.442C115.09 25.9847 114.521 25.756 113.821 25.756C113.121 25.756 112.551 25.9847 112.113 26.442C111.674 26.8947 111.455 27.506 111.455 28.276C111.455 29.0507 111.674 29.6714 112.113 30.138C112.551 30.6047 113.121 30.838 113.821 30.838ZM122.995 32.14C122.229 32.14 121.553 31.9744 120.965 31.643C120.381 31.3117 119.924 30.8567 119.593 30.278C119.266 29.6947 119.103 29.0274 119.103 28.276C119.103 27.5294 119.266 26.869 119.593 26.295C119.924 25.7164 120.381 25.266 120.965 24.944C121.553 24.6174 122.229 24.454 122.995 24.454C123.76 24.454 124.434 24.6174 125.018 24.944C125.606 25.266 126.063 25.7164 126.39 26.295C126.721 26.869 126.887 27.5294 126.887 28.276C126.887 29.0274 126.721 29.6947 126.39 30.278C126.063 30.8567 125.606 31.3117 125.018 31.643C124.434 31.9744 123.76 32.14 122.995 32.14ZM122.995 30.838C123.695 30.838 124.264 30.6047 124.703 30.138C125.141 29.6714 125.361 29.0507 125.361 28.276C125.361 27.506 125.141 26.8947 124.703 26.442C124.264 25.9847 123.695 25.756 122.995 25.756C122.295 25.756 121.725 25.9847 121.287 26.442C120.848 26.8947 120.629 27.506 120.629 28.276C120.629 29.0507 120.848 29.6714 121.287 30.138C121.725 30.6047 122.295 30.838 122.995 30.838ZM128.577 32V21.059H130.019V27.121L132.966 24.566H134.877L131.79 27.296L134.877 32H133.26L130.824 28.157L130.019 28.864V32H128.577Z" fill="white"/>
<path d="M54.8803 27.711C54.8803 20.8405 49.3106 15.2709 42.4401 15.2709C35.5696 15.2709 30 20.8405 30 27.711C30 33.9203 34.5492 39.0668 40.4964 40V31.307H37.3377V27.711H40.4964V24.9703C40.4964 21.8525 42.3536 20.1303 45.1952 20.1303C46.5562 20.1303 47.9799 20.3733 47.9799 20.3733V23.4347H46.4112C44.8658 23.4347 44.3839 24.3937 44.3839 25.3774V27.711H47.8341L47.2826 31.307H44.3839V40C50.3311 39.0668 54.8803 33.9203 54.8803 27.711Z" fill="white"/>
</svg>
