<svg width="166" height="54" viewBox="0 0 166 54" fill="none" xmlns="http://www.w3.org/2000/svg">
<rect width="166" height="54" rx="15" fill="#0B0B0B"/>
<path d="M78.8425 33.147C78.0538 33.147 77.3375 32.9393 76.6935 32.524C76.0541 32.1087 75.5431 31.5067 75.1605 30.718C74.7825 29.9293 74.5935 28.975 74.5935 27.855C74.5935 26.735 74.7871 25.7783 75.1745 24.985C75.5665 24.1917 76.0938 23.5873 76.7565 23.172C77.4238 22.752 78.1705 22.542 78.9965 22.542C79.6685 22.542 80.2401 22.6563 80.7115 22.885C81.1875 23.1137 81.5725 23.4077 81.8665 23.767C82.1605 24.1263 82.3751 24.5067 82.5105 24.908C82.6458 25.3093 82.7135 25.6827 82.7135 26.028V26.112H81.2365V26.028C81.2365 25.678 81.1548 25.3373 80.9915 25.006C80.8328 24.67 80.5855 24.3947 80.2495 24.18C79.9181 23.9607 79.5005 23.851 78.9965 23.851C78.4785 23.851 78.0025 23.9933 77.5685 24.278C77.1345 24.558 76.7845 24.9943 76.5185 25.587C76.2571 26.175 76.1265 26.931 76.1265 27.855C76.1265 28.793 76.2525 29.556 76.5045 30.144C76.7611 30.732 77.0995 31.1637 77.5195 31.439C77.9441 31.7143 78.4108 31.852 78.9195 31.852C79.4281 31.852 79.8505 31.7633 80.1865 31.586C80.5225 31.4087 80.7815 31.1917 80.9635 30.935C81.1455 30.6737 81.2645 30.4147 81.3205 30.158V29.213H78.9545V28.023H82.6855V33H81.7125L81.6005 31.852C81.5538 31.9547 81.4325 32.111 81.2365 32.321C81.0405 32.5263 80.7488 32.7153 80.3615 32.888C79.9741 33.0607 79.4678 33.147 78.8425 33.147ZM88.2478 33.14C87.4825 33.14 86.8058 32.9743 86.2178 32.643C85.6345 32.3117 85.1772 31.8567 84.8458 31.278C84.5192 30.6947 84.3558 30.0273 84.3558 29.276C84.3558 28.5293 84.5192 27.869 84.8458 27.295C85.1772 26.7163 85.6345 26.266 86.2178 25.944C86.8058 25.6173 87.4825 25.454 88.2478 25.454C89.0132 25.454 89.6875 25.6173 90.2708 25.944C90.8588 26.266 91.3162 26.7163 91.6428 27.295C91.9742 27.869 92.1398 28.5293 92.1398 29.276C92.1398 30.0273 91.9742 30.6947 91.6428 31.278C91.3162 31.8567 90.8588 32.3117 90.2708 32.643C89.6875 32.9743 89.0132 33.14 88.2478 33.14ZM88.2478 31.838C88.9478 31.838 89.5172 31.6047 89.9558 31.138C90.3945 30.6713 90.6138 30.0507 90.6138 29.276C90.6138 28.506 90.3945 27.8947 89.9558 27.442C89.5172 26.9847 88.9478 26.756 88.2478 26.756C87.5478 26.756 86.9785 26.9847 86.5398 27.442C86.1012 27.8947 85.8818 28.506 85.8818 29.276C85.8818 30.0507 86.1012 30.6713 86.5398 31.138C86.9785 31.6047 87.5478 31.838 88.2478 31.838ZM97.4217 33.14C96.6563 33.14 95.9797 32.9743 95.3917 32.643C94.8083 32.3117 94.351 31.8567 94.0197 31.278C93.693 30.6947 93.5297 30.0273 93.5297 29.276C93.5297 28.5293 93.693 27.869 94.0197 27.295C94.351 26.7163 94.8083 26.266 95.3917 25.944C95.9797 25.6173 96.6563 25.454 97.4217 25.454C98.187 25.454 98.8613 25.6173 99.4447 25.944C100.033 26.266 100.49 26.7163 100.817 27.295C101.148 27.869 101.314 28.5293 101.314 29.276C101.314 30.0273 101.148 30.6947 100.817 31.278C100.49 31.8567 100.033 32.3117 99.4447 32.643C98.8613 32.9743 98.187 33.14 97.4217 33.14ZM97.4217 31.838C98.1217 31.838 98.691 31.6047 99.1297 31.138C99.5683 30.6713 99.7877 30.0507 99.7877 29.276C99.7877 28.506 99.5683 27.8947 99.1297 27.442C98.691 26.9847 98.1217 26.756 97.4217 26.756C96.7217 26.756 96.1523 26.9847 95.7137 27.442C95.275 27.8947 95.0557 28.506 95.0557 29.276C95.0557 30.0507 95.275 30.6713 95.7137 31.138C96.1523 31.6047 96.7217 31.838 97.4217 31.838ZM107.883 32.405C108.509 32.461 109.017 32.6127 109.409 32.86C109.806 33.1073 110.004 33.5133 110.004 34.078C110.004 34.7173 109.682 35.2283 109.038 35.611C108.394 35.9937 107.438 36.185 106.168 36.185C104.955 36.185 104.031 36.01 103.396 35.66C102.766 35.31 102.451 34.834 102.451 34.232C102.451 34.0547 102.472 33.8937 102.514 33.749C102.556 33.609 102.608 33.4923 102.668 33.399L104.082 33.609C104.045 33.6557 104.01 33.7257 103.977 33.819C103.949 33.9123 103.935 34.022 103.935 34.148C103.935 34.4793 104.138 34.715 104.544 34.855C104.95 34.995 105.513 35.065 106.231 35.065C107.02 35.065 107.608 34.9833 107.995 34.82C108.387 34.6613 108.583 34.4443 108.583 34.169C108.583 33.8937 108.464 33.721 108.226 33.651C107.988 33.581 107.701 33.532 107.365 33.504L104.544 33.273C104.054 33.231 103.653 33.084 103.34 32.832C103.032 32.58 102.878 32.2627 102.878 31.88C102.878 31.586 102.967 31.3177 103.144 31.075C103.326 30.8277 103.508 30.648 103.69 30.536C103.07 30.004 102.759 29.304 102.759 28.436C102.759 27.862 102.904 27.351 103.193 26.903C103.483 26.4503 103.879 26.0957 104.383 25.839C104.887 25.5777 105.466 25.447 106.119 25.447C106.703 25.447 107.218 25.5543 107.666 25.769C108.114 25.979 108.455 26.238 108.688 26.546L108.814 25.566H110.193L109.626 28.471C109.524 29.0123 109.335 29.5023 109.059 29.941C108.789 30.375 108.42 30.718 107.953 30.97C107.491 31.222 106.915 31.348 106.224 31.348C105.613 31.348 105.065 31.2547 104.579 31.068C104.5 31.1287 104.43 31.2033 104.369 31.292C104.309 31.3807 104.278 31.4763 104.278 31.579C104.278 31.7377 104.344 31.8683 104.474 31.971C104.61 32.0737 104.871 32.1413 105.258 32.174L107.883 32.405ZM106.217 30.109C106.824 30.109 107.302 29.962 107.652 29.668C108.007 29.374 108.184 28.954 108.184 28.408C108.184 27.8807 108.007 27.4653 107.652 27.162C107.302 26.854 106.826 26.7 106.224 26.7C105.646 26.7 105.172 26.8563 104.803 27.169C104.435 27.4817 104.25 27.9017 104.25 28.429C104.25 28.961 104.425 29.374 104.775 29.668C105.13 29.962 105.611 30.109 106.217 30.109ZM113.234 22.059V33H111.736V22.059H113.234ZM122.548 30.662C122.511 31.0633 122.348 31.4553 122.058 31.838C121.769 32.2207 121.356 32.5357 120.819 32.783C120.283 33.0303 119.629 33.154 118.859 33.154C118.089 33.154 117.41 32.9907 116.822 32.664C116.239 32.3373 115.784 31.8847 115.457 31.306C115.131 30.7273 114.967 30.06 114.967 29.304C114.967 28.5387 115.133 27.8667 115.464 27.288C115.796 26.7093 116.253 26.259 116.836 25.937C117.424 25.6103 118.101 25.447 118.866 25.447C119.641 25.447 120.311 25.6103 120.875 25.937C121.445 26.2637 121.883 26.714 122.191 27.288C122.499 27.862 122.653 28.5223 122.653 29.269C122.653 29.353 122.651 29.4557 122.646 29.577C122.642 29.6937 122.635 29.773 122.625 29.815H116.486C116.58 30.4637 116.834 30.97 117.249 31.334C117.669 31.698 118.222 31.88 118.908 31.88C119.389 31.88 119.781 31.817 120.084 31.691C120.392 31.565 120.623 31.4087 120.777 31.222C120.931 31.0353 121.018 30.8487 121.036 30.662H122.548ZM118.88 26.707C118.25 26.707 117.725 26.8773 117.305 27.218C116.885 27.5587 116.619 28.03 116.507 28.632H121.064C121.027 28.1093 120.826 27.659 120.462 27.281C120.098 26.8983 119.571 26.707 118.88 26.707Z" fill="white"/>
<path d="M63.9284 27.4365C63.9284 26.5166 63.8538 25.8454 63.6923 25.1492H53.188V29.3012H59.3538C59.2295 30.333 58.5582 31.8869 57.0665 32.931L57.0455 33.07L60.3668 35.643L60.5969 35.6659C62.7101 33.7142 63.9284 30.8426 63.9284 27.4365Z" fill="white"/>
<path d="M53.188 38.3759C56.2087 38.3759 58.7446 37.3814 60.5969 35.6659L57.0665 32.931C56.1217 33.5899 54.8537 34.0498 53.188 34.0498C50.2294 34.0498 47.7183 32.0982 46.8232 29.4007L46.692 29.4118L43.2385 32.0845L43.1934 32.2101C45.0331 35.8648 48.8122 38.3759 53.188 38.3759Z" fill="white"/>
<path d="M46.8232 29.4007C46.587 28.7045 46.4503 27.9586 46.4503 27.1879C46.4503 26.4172 46.587 25.6713 46.8108 24.9752L46.8045 24.8269L43.3078 22.1113L43.1934 22.1657C42.4351 23.6823 42 25.3854 42 27.1879C42 28.9904 42.4351 30.6934 43.1934 32.2101L46.8232 29.4007Z" fill="white"/>
<path d="M53.188 20.326C55.2888 20.326 56.7059 21.2334 57.514 21.9918L60.6715 18.9088C58.7323 17.1063 56.2087 16 53.188 16C48.8122 16 45.0331 18.511 43.1934 22.1657L46.8108 24.9752C47.7183 22.2777 50.2294 20.326 53.188 20.326Z" fill="white"/>
</svg>
