<?xml version="1.0" encoding="utf-8"?>
<!-- Designed by Vexels.com - 2019 All Rights Reserved - https://vexels.com/terms-and-conditions/  -->
<svg version="1.1" id="Layer_1" xmlns="http://www.w3.org/2000/svg" xmlns:xlink="http://www.w3.org/1999/xlink" x="0px" y="0px"
	 viewBox="0 0 1200 1200" enable-background="new 0 0 1200 1200" xml:space="preserve">
<g>
	<path opacity="0.37" fill="#4B4C06" d="M89.732,869.742c11.506,3.835,307.715,156.655,307.715,156.655l748.575-423.483
		L873.721,426.493L89.732,869.742z"/>
	<path fill="#4B4C06" d="M239.035,420.535l8.514-4.948c2.135-1.241,5.087-1.074,8.332,0.799l-8.514,4.948
		C244.122,419.461,241.17,419.294,239.035,420.535z"/>
	<polygon fill="#4B4C06" points="247.367,421.334 255.881,416.387 285.852,433.691 277.338,438.638 	"/>
	<path fill="#4B4C06" d="M277.338,438.638l8.514-4.948c6.448,3.723,11.061,16.941,11.04,24.35l-8.514,4.948
		C288.399,455.579,283.786,442.361,277.338,438.638z"/>
	<polygon fill="#42430A" points="288.378,462.988 296.892,458.04 318.579,470.899 310.065,475.846 	"/>
	<path fill="#42430A" d="M277.338,438.638c6.448,3.723,11.061,16.941,11.04,24.35l21.687,12.858c2.953,2.184,2.63,7.004-0.347,5.285
		l-21.358-11.648c-0.021,7.409-4.69,13.919-11.138,10.196l-29.971-17.304c-6.448-3.723-11.706-12.83-11.685-20.239l0.04-14.1
		c0.021-7.409,5.314-10.425,11.761-6.702L277.338,438.638z"/>
	<path fill="#4B4C06" d="M292.17,475.049l-8.514,4.948c2.896-1.683,4.69-5.925,4.703-10.512l8.514-4.948
		C296.86,469.124,295.066,473.366,292.17,475.049z"/>
	<path opacity="0.36" fill="#FFFFFF" d="M484.031,303.865c-2.691-7.835-11.908-13.023-19.03-8.793l-64.305,34.563
		c-3.25,1.771-12.058,8.034-13.516,11.437c-5.259,12.276-23.632,56.754-39.287,88.89c-6.926,14.215-21.711,43.723-7.611,36.565
		c48.536-24.64,136.214-70.772,154.192-80.074c3.087-1.597,9.943-7.203,7.941-16.544L484.031,303.865z"/>
	<path fill="#687029" d="M681.118,277.269l-53.374-94.961L374.006,326.643l0,0c-0.749,1.455-3.607,7.003-7.904,15.334
		c-0.859,1.666-1.775,3.444-2.744,5.322c-1.938,3.757-4.085,7.917-6.398,12.396c-12.719,24.637-30.459,58.94-46.093,88.957
		c-9.949,19.102-19.045,36.469-25.452,48.506c-5.491,10.317-9.008,16.719-9.392,16.94c-0.671,0.388-8.391,7.194-20.491,17.999
		c-6.05,5.402-13.195,11.804-21.102,18.903c-5.271,4.733-10.881,9.775-16.731,15.038c-17.549,15.789-37.257,33.561-56.458,50.896
		c-6.4,5.779-12.743,11.509-18.932,17.101c-21.66,19.572-41.421,37.453-55.047,49.802c-11.679,10.585-18.851,17.105-18.851,17.142
		c0,0.009,0.004,0.092,0.011,0.245c0.007,0.153,0.016,0.375,0.029,0.662c0.026,0.574,0.063,1.409,0.11,2.466
		c0.186,4.23,0.516,12.032,0.826,21.076c0.116,3.392,0.229,6.958,0.33,10.576c0.236,8.441,0.408,17.163,0.406,24.604
		c0,2.126-0.015,4.148-0.046,6.028c-0.048,2.821-0.133,5.323-0.266,7.386c-0.22,3.438-0.571,5.654-1.09,6.077v0
		c-3.271,2.67,104.872-64.551,111.324-68.257c-0.152-53.703,30.211-105.7,62.035-124.069c30.612-17.67,77.175-7.04,76.619,48.589
		c6.06-3.426,121.2-68.513,207.769-118.494c48.088-27.764,105.008-63.386,105.005-64.787c1.639-58.181,29.468-98.62,62.048-117.424
		c29.173-16.838,55.195-14.063,63.382,38.029l60.68-42.452l1.756-104.288L681.118,277.269z M496.325,385.766
		c-17.979,9.302-105.657,55.434-154.192,80.074c-14.099,7.158,0.686-22.35,7.611-36.565c15.655-32.135,34.029-76.614,39.287-88.89
		c1.457-3.403,10.265-9.665,13.516-11.437l64.305-34.563c7.122-4.23,16.339,0.958,19.03,8.793l18.384,66.043
		C506.268,378.563,499.412,384.169,496.325,385.766z M623.588,313.804c-39.374,22.542-91.011,52.33-91.525,52.543
		c-0.505,0.21-13.101-45.633-23.727-73.81c-3.423-9.078,0.182-19.291,8.516-24.259c17.936-10.694,43.039-25.262,60.683-34.799
		c5.661-3.059,13.863,10.306,17.014,15.916c10.042,17.879,25.393,47.804,30.822,58.397
		C626.487,309.972,625.714,312.587,623.588,313.804z M644.56,301.722c-0.304,0.763-42.313-80.471-42.878-82.512
		c2.767-1.341,10.946-6.046,10.976-6.037c9.879,2.744,59.034,71.343,59.034,71.343S658.572,293.706,644.56,301.722z"/>
	<polygon fill="#42430A" points="79.007,783.55 399.917,956.992 1146.484,495.165 840.19,346.106 98.635,756.373 	"/>
	<path fill="#888E38" d="M987.21,499.031l101.339,58.892c-4.013-25.542-13.152-40.675-24.865-47.481l-45.38-26.372
		C1007.228,487.6,996.11,492.341,987.21,499.031z"/>
	<path fill="#42430A" d="M630.357,767.951l-8.49-4.934c-10.351,0.941-20.644,2.511-30.849,5.777
		c-3.14,1.005-6.275,2.157-9.411,3.341l67.755,47.213C649.644,790.962,641.99,774.711,630.357,767.951z"/>
	<path fill="#42430A" d="M584.385,766.331l47.122,27.385c-10.638-6.182-25.106-5.407-41.025,3.784l-47.122-27.384
		C559.279,760.924,573.748,760.149,584.385,766.331z"/>
	<path fill="#42430A" d="M549.837,942.452l-47.122-27.384c-11.086-6.443-18.007-20.435-18.063-40.308
		c-0.111-39.045,26.181-85.865,58.708-104.644l47.122,27.384c-32.527,18.78-58.819,65.6-58.708,104.644
		C531.831,922.018,538.751,936.01,549.837,942.452z"/>
	<path fill="#4B4C06" d="M590.482,797.5c32.527-18.78,58.998-2.422,59.109,36.623c0.11,38.947-26.181,85.767-58.708,104.546
		s-58.998,2.422-59.108-36.525C531.664,863.099,557.955,816.279,590.482,797.5z"/>
	<path fill="#42430A" d="M1031.197,505.33l47.122,27.385c-10.637-6.182-25.106-5.407-41.025,3.784l-47.122-27.384
		C1006.091,499.923,1020.56,499.148,1031.197,505.33z"/>
	<path fill="#42430A" d="M996.649,681.451l-47.122-27.384c-11.086-6.443-18.006-20.435-18.063-40.308
		c-0.111-39.045,26.181-85.865,58.708-104.644l47.122,27.384c-32.527,18.78-58.819,65.6-58.708,104.644
		C978.642,661.016,985.563,675.008,996.649,681.451z"/>
	<path fill="#4B4C06" d="M1037.294,536.498c32.527-18.78,58.998-2.422,59.109,36.623c0.11,38.947-26.181,85.766-58.708,104.546
		c-32.527,18.78-58.998,2.422-59.108-36.525C978.475,602.098,1004.767,555.278,1037.294,536.498z"/>
	<path fill="#4B4C06" d="M590.482,797.5c32.527-18.78,58.998-2.422,59.109,36.623c0.11,38.947-26.181,85.767-58.708,104.546
		s-58.998,2.422-59.108-36.525C531.664,863.099,557.955,816.279,590.482,797.5z"/>
	<path fill="#F2EDE0" d="M597.129,829.973c16.557-9.559,30.031-1.233,30.087,18.642c0.056,19.824-13.326,43.656-29.883,53.215
		c-16.557,9.559-30.031,1.233-30.087-18.592C567.189,863.365,580.572,839.533,597.129,829.973z"/>
	<path fill="#4B4C06" d="M1037.294,536.498c32.527-18.78,58.998-2.422,59.109,36.623c0.11,38.947-26.181,85.766-58.708,104.546
		c-32.527,18.78-58.998,2.422-59.108-36.525C978.475,602.098,1004.767,555.278,1037.294,536.498z"/>
	<path fill="#F2EDE0" d="M1043.941,568.972c16.557-9.559,30.031-1.233,30.087,18.642c0.056,19.824-13.326,43.656-29.883,53.215
		s-30.031,1.233-30.087-18.592C1014.001,602.363,1027.384,578.531,1043.941,568.972z"/>
	<polygon fill="#888E38" points="1011.78,460.256 681.924,268.565 820.144,218.242 1150,409.933 	"/>
	<g>
		
			<rect x="1061.272" y="355.402" transform="matrix(0.3543 0.9351 -0.9351 0.3543 1081.5466 -722.4092)" fill="#42430A" width="5.266" height="133.185"/>
	</g>
	<path fill="#56560D" d="M670.751,425.116c1.763-1.345,3.472-2.471,5.098-3.384C674.223,422.646,672.514,423.772,670.751,425.116
		L670.751,425.116z"/>
	<path fill="#56560D" d="M942.483,520.989l0.015-5.28l0.015-5.281l0.015-5.281l0.016-5.281l0.014-5.28l0.016-5.281l0.015-5.281
		l0.015-5.281l0.015-5.281l0.015-5.24v0v-0.006v-0.032c-0.055-4.87-0.247-17.731-20.769-43.124
		c-7.381-9.134-16.273-18.48-26.427-27.78c-17.159-15.716-23.869-19.621-27.878-21.955l-0.002,0l-11.638-6.72l-11.639-6.72
		l-11.639-6.72l-11.638-6.72l-11.64-6.72l-11.638-6.72l-11.64-6.72l-11.638-6.72l-11.64-6.72l-11.638-6.72
		c-1.363-0.787-2.883-0.974-4.5-0.47c1.617-0.504,3.137-0.317,4.5,0.47c-2.343-1.352-4.089-2.225-4.747-2.554
		c-1.961-0.981-3.236-1.516-4.848-2.194c-0.894-0.376-2.245-0.943-9.117-3.113c-8.26-2.608-17.573-4.566-22.505-5.153
		c-6.151-0.731-12.266-1.316-19.442-0.456c-7.375,0.886-11.164,2.822-14.508,4.531l-3.173,1.844c1.399-0.813,2.947-1.503,4.633-2.07
		c-1.686,0.567-3.234,1.258-4.633,2.071c-2.829,1.823-6.349,4.092-9.325,9.366c-2.751,4.878-2.967,9.378-3.121,12.672
		c0-0.004-0.002-0.009-0.002-0.009l-0.014,5.276l-0.016,5.281l-0.015,5.281l-0.015,5.281l-0.015,5.281l-0.015,5.281l-0.016,5.28
		l-0.014,5.281l-0.016,5.281l-0.014,5.281c-0.002,0.483,0.081,0.988,0.19,1.5c-0.109-0.509-0.192-1.012-0.191-1.493
		c-0.009,3.738-0.183,6.887-0.57,12.532c-0.362,5.286-0.812,11.865-0.405,15.806c0.198,1.918,0.422,3.578,0.7,5.095
		c7.58,2.086,16.515,5.293,27.423,10.029c-0.479-0.208-1.122-0.19-1.698-0.267c0.619,0.082,1.3,0.081,1.806,0.315
		c10.238,4.675,14.794,6.524,27.652,11.666c23.099,9.237,30.154,13.079,41.611,19.617c7.958,4.54,20.982,13.627,27.977,18.508
		c17.852,12.454,44.829,31.274,97.396,61.281c-0.459-0.262-1.121-0.308-1.676-0.47c0.831,0.243,1.716,0.433,2.327,0.901
		c7.134,5.645,13.295,10.52,19.146,18.238c4.797,6.328,5.115,11.482,5.268,13.96l-0.011,3.67c-0.003,0.035-0.009,0.083-0.012,0.118
		c0.879,0.26,1.67,0.483,2.329,0.664c1.994,0.548,6.815,1.519,10.798,1.279c4.399-0.266,6.034-1.05,9.002-2.475
		c1.082-0.629,2-1.432,2.774-2.388c-0.775,0.956-1.692,1.759-2.774,2.389l3.174-1.844l0.002-0.002
		c4.443-3.025,7.095-5.73,9.133-14.582c0.78-3.387,0.936-8.559,1.031-11.65C942.809,532.5,942.518,526.746,942.483,520.989z"/>
	<path fill="#42430A" d="M907.188,563.08c-0.153-2.477-0.471-7.632-5.268-13.96c-5.852-7.718-12.012-12.594-19.146-18.238
		c-0.612-0.468-1.496-0.658-2.327-0.901c0.555,0.162,1.217,0.208,1.676,0.47c-52.567-30.006-79.544-48.827-97.396-61.281
		c-6.996-4.882-20.019-13.968-27.977-18.508c-11.457-6.538-18.512-10.38-41.611-19.617c-12.858-5.142-17.414-6.991-27.652-11.666
		c-0.506-0.234-1.186-0.233-1.806-0.315c0.576,0.076,1.219,0.059,1.698,0.267c-10.908-4.736-19.843-7.943-27.423-10.029
		c-24.692-6.793-34.482-1.244-46.84,5.86c0.622-0.361,1.481-0.476,2.277-0.656c-0.799,0.182-1.66,0.299-2.286,0.662l-3.62,2.104
		l-3.62,2.103l-3.62,2.104l-3.62,2.104l-3.619,2.104l-3.62,2.104l-3.62,2.104l-3.62,2.103l-3.62,2.104l-3.62,2.104
		c0,0,0.016-0.002,0.021-0.006c-3.527,2.184-5.08,3.784-7.163,7.389c-1.572,2.722-1.807,6.059-1.979,8.495
		c-0.006,2.239,0.501,4.698,1.495,7.344c-0.994-2.647-1.501-5.105-1.495-7.344l-0.01,3.67c0.277,4.103,0.37,5.485,2.042,10.079
		c1.288,3.542,3.643,7.328,5.201,9.834c4.878,7.843,14.037,16.78,17.948,20.596c1.723,1.681,11.133,10.652,27.265,22.256
		c13.785,9.917,23.079,15.433,34.843,22.418c-0.621-0.359-1.011-0.933-1.439-1.472c0.427,0.54,0.819,1.115,1.441,1.474l4.409,2.546
		l4.41,2.546l4.409,2.545l4.41,2.546l4.409,2.545l4.409,2.546l4.409,2.546l4.409,2.545l4.409,2.546l4.409,2.545
		c-0.625-0.361-1.019-0.938-1.449-1.482c0.429,0.545,0.825,1.122,1.452,1.483c8.976,5.081,23.996,13.584,45.183,22.969
		c22.053,9.768,38.788,15.113,44.959,16.958c44.666,13.351,55.487,7.569,60.102,5.035l-0.007,0.007l3.62-2.104l3.62-2.104
		l3.62-2.103l3.62-2.104l3.62-2.104l3.62-2.104l3.619-2.104l3.621-2.104l3.619-2.103l3.62-2.104c0.741-0.43,1.257-1.073,1.721-1.757
		c-0.463,0.683-0.978,1.325-1.717,1.755c9.299-5.4,12.779-7.42,16.65-11.652c4.337-4.742,4.693-8.97,4.902-11.807
		c0.003-0.036,0.009-0.083,0.012-0.118L907.188,563.08z M670.751,425.116L670.751,425.116c1.763-1.345,3.472-2.471,5.098-3.384
		C674.223,422.646,672.514,423.772,670.751,425.116z M887.713,588.18c0.487-0.905,0.747-1.999,0.75-3.28l0.001,0
		C888.46,586.181,888.2,587.275,887.713,588.18z"/>
	<path fill="#FFFFFF" d="M769.46,514.41c3.866,1.944,7.728,3.895,11.595,5.839c-0.041-2.681-0.021-5.356,0.048-8.031
		c-3.733-2.155-7.466-4.31-11.2-6.465C769.627,508.626,769.504,511.515,769.46,514.41z"/>
	<path fill="#FFFFFF" d="M781.158,511.053c-0.22-0.243-0.444-0.432-0.661-0.692c0.22,0.263,0.436,0.556,0.657,0.801
		C781.155,511.126,781.157,511.09,781.158,511.053z"/>
	<path fill="#FFFFFF" d="M732.781,485.608l-12.268-7.083c0.465,3.894,0.783,7.794,0.925,11.702
		c3.819,1.932,7.646,3.846,11.464,5.774C732.965,492.53,732.941,489.065,732.781,485.608z"/>
	<path fill="#56560D" d="M830.959,645.578v0.002c-0.955-17.796-1.91-35.589-2.867-53.384v0.007
		c-0.32-5.846-1.545-11.941-3.646-18.117c-1.317-3.87-2.718-6.973-2.731-7.001c-1.775-3.851-2.585-5.608-5.264-10.337
		c-9.312-16.444-22.165-27.925-26.389-31.698c-0.507-0.437-1.037-0.775-1.58-1.042c0.021,0.01,0.043,0.004,0.063,0.014
		c-2.497-1.256-4.992-2.517-7.49-3.772c-3.867-1.944-7.729-3.896-11.595-5.839c-12.19-6.128-24.377-12.263-36.557-18.41
		c-3.819-1.928-7.646-3.842-11.464-5.774c-0.438-0.221-0.875-0.44-1.313-0.661c-1.019-0.516-2.03-0.782-3.026-0.868
		c0.106,0.009,0.208-0.023,0.315-0.009c-14.956-1.912-22.855,2.23-27.098,4.454l-3.079,1.789
		c-3.725,2.224-9.129,6.134-13.049,14.378c-3.898,8.202-3.725,16.339-3.632,20.711l0.005,0.015c0,0-0.004-0.004-0.005-0.01
		c0,1.785,0.191,3.559,0.287,5.338c0.095,1.779,0.191,3.558,0.286,5.338c0.043,1.603,0.201,3.736,0.286,5.338
		c0.096,1.779,0.192,3.559,0.288,5.338c0.572,10.677,1.146,21.353,1.718,32.03l0.003,0.007c0.694,11.911,4.84,22.621,9.375,31.178
		c3.438,0.278,8.827,0.885,15.425,2.232c8.991,1.837,16.865,4.408,20.758,5.777c-0.327-0.115-0.77-0.036-1.148-0.07
		c0.626,0.055,1.276,0.07,1.76,0.35c0.529,0.308,13.598,7.913,70.209,40.628c-0.381-0.22-0.946-0.249-1.395-0.398
		c0.901,0.3,1.819,0.587,2.433,1.169c3.709,3.675,11.098,11.025,14.752,20.805c1.958-0.732,3.665-1.583,5.636-2.593l3.079-1.789
		c1.209-0.702,2.336-1.507,3.4-2.384c4.072-3.135,7.198-6.859,9.237-11.16C831.156,658.278,831.051,651.531,830.959,645.578z"/>
	<path fill="#6E6E6E" d="M801.417,487.986c-0.399-4.074-1.151-8.337-2.351-12.62c-2.005,0.915-3.48,1.677-4.63,2.392
		C796.438,480.017,799.322,483.716,801.417,487.986z"/>
	<path fill="#56560D" d="M757.467,499.86c3.637,2.296,5.198,3.927,5.748,3.659c0.649-0.302,1.283-0.379,1.922-0.52
		c1.59,0.917,3.179,1.836,4.767,2.753c3.734,2.155,7.467,4.31,11.2,6.465c1.367,0.79,2.734,1.579,4.102,2.369
		c-0.688-0.397-1.379-0.901-2.066-1.483c2.952,2.497,5.959,3.361,8.614,2.111c0.397-0.197,0.922-0.472,1.309-0.686l3.079-1.789
		c7.267-4.29,9.831-12.969,6.531-22.109c-0.33-0.914-0.825-1.764-1.256-2.644c-2.095-4.27-4.979-7.97-6.981-10.228
		c1.15-0.715,2.626-1.477,4.63-2.392c-20.651-11.923-49.958-28.844-70.61-40.766c-0.249,0.589-0.62,1.186-0.893,1.779
		c-6.605-2.337-14.089-3.217-20.818,0.415l-3.079,1.789c-10.238,6.162-9.128,18.7-5.072,25.634c-0.104-0.171-0.141-0.434-0.22-0.64
		c0.25,0.655,0.574,1.211,1.077,1.501c2.515,1.452,5.03,2.904,7.546,4.356c0.614,0.905,1.294,1.817,1.837,2.69
		c0.547,0.902,2.112,1.076,5.75,2.98l5.927,3.421l12.268,7.083L757.467,499.86z M781.158,511.053
		c0.567,0.628,1.132,1.28,1.708,1.788c-0.574-0.506-1.146-1.052-1.713-1.679c-0.221-0.245-0.437-0.538-0.657-0.801
		C780.714,510.622,780.938,510.81,781.158,511.053z M698.064,462.665c-0.018-0.114-0.004-0.316,0.074-0.508
		c0.033,0.292,0.003,0.662,0.065,0.916C698.166,462.925,698.091,462.828,698.064,462.665z"/>
	<path fill="#42430A" d="M788.411,663.113c0.449,0.15,1.014,0.178,1.395,0.398c-56.612-32.715-69.68-40.32-70.209-40.628
		c-0.484-0.281-1.134-0.296-1.76-0.35c0.378,0.033,0.821-0.046,1.148,0.07c-3.894-1.369-11.768-3.94-20.758-5.777
		c-6.598-1.348-11.988-1.954-15.425-2.232c-1.638-0.133-2.871-0.198-3.51-0.221c-16.965-0.623-24.253,2.446-30.255,5.646
		l-0.008,0.002l-3.551,2.064l-3.552,2.064l-3.551,2.064l-3.552,2.064l-3.552,2.064l-3.552,2.064l-3.552,2.064l-3.552,2.065
		l-3.552,2.064l-3.551,2.064l0.005-0.001c-2.331,1.454-6.645,4.151-9.656,9.078c-3.161,5.177-3.381,8.816-3.613,12.669l-0.01,3.561
		c0.093,3.064,0.376,12.388,9.94,24.173c9.668,11.915,22.056,19.425,28.712,23.46c-0.519-0.3-0.822-0.801-1.203-1.232
		c0.381,0.432,0.686,0.934,1.208,1.235l2.395,1.383l2.395,1.383l2.395,1.383l2.394,1.382l2.396,1.383l2.394,1.383l2.396,1.383
		l2.394,1.383l2.396,1.383l2.394,1.383c-0.673-0.389-1.121-0.988-1.559-1.595c0.438,0.609,0.889,1.209,1.565,1.598
		c22.334,12.831,43.458,17.43,54.061,19.029c12.496,1.885,20.878,1.236,23.149,0.992c10.598-1.138,14.657-3.256,18.941-5.502
		c0,0-0.002,0.003-0.004,0.004c11.84-6.88,23.68-13.761,35.518-20.641l0.009-0.009c12.481-7.511,12.995-17.442,13.214-21.685
		l0.011-3.561c-0.058-3.922-0.889-7.59-2.154-10.977c-3.654-9.78-11.043-17.13-14.752-20.805
		C790.23,663.7,789.311,663.413,788.411,663.113z"/>
	<path fill="#FFFFFF" d="M588.657,413.165c3.866,1.944,7.728,3.895,11.595,5.839c-0.041-2.681-0.021-5.356,0.048-8.031
		c-3.733-2.155-7.466-4.31-11.2-6.465C588.824,407.382,588.701,410.271,588.657,413.165z"/>
	<path fill="#FFFFFF" d="M600.355,409.809c-0.22-0.243-0.444-0.432-0.661-0.692c0.22,0.263,0.436,0.556,0.657,0.801
		C600.352,409.881,600.354,409.845,600.355,409.809z"/>
	<path fill="#FFFFFF" d="M551.978,384.364l-12.268-7.083c0.465,3.894,0.783,7.794,0.925,11.702
		c3.819,1.932,7.646,3.846,11.464,5.773C552.162,391.285,552.138,387.821,551.978,384.364z"/>
	<path fill="#56560D" d="M650.156,544.334v0.002c-0.955-17.796-1.91-35.589-2.867-53.384v0.007
		c-0.32-5.846-1.545-11.941-3.646-18.117c-1.317-3.87-2.718-6.973-2.731-7.001c-1.775-3.851-2.585-5.608-5.264-10.337
		c-9.312-16.444-22.165-27.925-26.389-31.698c-0.507-0.437-1.037-0.775-1.58-1.042c0.021,0.01,0.043,0.004,0.063,0.014
		c-2.497-1.256-4.992-2.517-7.49-3.772c-3.867-1.944-7.729-3.896-11.595-5.839c-12.19-6.128-24.377-12.263-36.557-18.41
		c-3.819-1.928-7.646-3.842-11.464-5.773c-0.438-0.221-0.875-0.44-1.313-0.661c-1.019-0.516-2.03-0.782-3.026-0.868
		c0.106,0.009,0.208-0.023,0.315-0.009c-14.956-1.912-22.855,2.23-27.098,4.454l-3.079,1.789
		c-3.725,2.224-9.129,6.134-13.048,14.378c-3.898,8.202-3.725,16.339-3.632,20.711c0.001,0.007,0.005,0.015,0.005,0.015l-0.005-0.01
		c0,1.785,0.191,3.559,0.287,5.338c0.095,1.779,0.191,3.558,0.286,5.338c0.043,1.603,0.201,3.736,0.286,5.338
		c0.096,1.779,0.192,3.559,0.288,5.338c0.572,10.677,1.146,21.353,1.718,32.03l0.003,0.007c0.694,11.911,4.84,22.621,9.375,31.178
		c3.438,0.278,8.827,0.885,15.425,2.233c8.991,1.837,16.865,4.408,20.758,5.777c-0.327-0.115-0.77-0.036-1.148-0.07
		c0.626,0.055,1.276,0.07,1.76,0.35c0.529,0.308,13.598,7.913,70.209,40.628c-0.381-0.22-0.946-0.249-1.395-0.398
		c0.901,0.3,1.819,0.587,2.433,1.169c3.709,3.675,11.098,11.025,14.752,20.805c1.958-0.732,3.665-1.583,5.636-2.593l3.079-1.789
		c1.209-0.702,2.336-1.507,3.4-2.384c4.072-3.135,7.198-6.859,9.237-11.16C650.353,557.033,650.248,550.287,650.156,544.334z"/>
	<path fill="#6E6E6E" d="M620.614,386.742c-0.399-4.074-1.151-8.337-2.351-12.62c-2.005,0.915-3.48,1.677-4.63,2.392
		C615.635,378.772,618.519,382.472,620.614,386.742z"/>
	<path fill="#56560D" d="M576.664,398.616c3.637,2.296,5.198,3.927,5.748,3.659c0.649-0.302,1.283-0.379,1.922-0.52
		c1.59,0.917,3.179,1.836,4.767,2.753c3.734,2.155,7.467,4.31,11.2,6.465c1.367,0.79,2.734,1.579,4.102,2.369
		c-0.688-0.397-1.379-0.901-2.066-1.483c2.952,2.497,5.959,3.361,8.614,2.111c0.397-0.197,0.922-0.472,1.309-0.686l3.079-1.789
		c7.267-4.29,9.831-12.969,6.531-22.109c-0.33-0.914-0.825-1.764-1.256-2.644c-2.095-4.27-4.979-7.97-6.981-10.228
		c1.15-0.715,2.626-1.477,4.63-2.392c-20.651-11.923-49.958-28.844-70.61-40.766c-0.249,0.589-0.62,1.186-0.893,1.779
		c-6.605-2.337-14.089-3.217-20.818,0.415l-3.079,1.789c-10.238,6.162-9.128,18.7-5.072,25.634c-0.104-0.171-0.141-0.434-0.22-0.64
		c0.25,0.655,0.574,1.211,1.077,1.501c2.515,1.452,5.03,2.904,7.546,4.356c0.614,0.905,1.294,1.817,1.837,2.69
		c0.547,0.902,2.112,1.076,5.75,2.98l5.927,3.421l12.268,7.083L576.664,398.616z M600.355,409.809
		c0.567,0.628,1.132,1.28,1.708,1.788c-0.574-0.506-1.146-1.052-1.713-1.679c-0.221-0.245-0.437-0.538-0.657-0.801
		C599.911,409.377,600.135,409.565,600.355,409.809z M517.261,361.421c-0.018-0.114-0.004-0.316,0.074-0.508
		c0.033,0.292,0.003,0.662,0.065,0.916C517.363,361.68,517.288,361.583,517.261,361.421z"/>
	<path fill="#42430A" d="M607.608,561.868c0.449,0.15,1.014,0.178,1.395,0.398c-56.612-32.715-69.68-40.32-70.209-40.628
		c-0.484-0.281-1.134-0.296-1.76-0.35c0.378,0.033,0.821-0.046,1.148,0.07c-3.894-1.369-11.768-3.94-20.758-5.777
		c-6.598-1.348-11.988-1.954-15.425-2.233c-1.638-0.133-2.871-0.198-3.51-0.221c-16.965-0.623-24.253,2.446-30.255,5.646
		l-0.008,0.002l-3.551,2.064l-3.552,2.065l-3.551,2.064l-3.552,2.064l-3.552,2.064l-3.552,2.064l-3.552,2.064l-3.552,2.065
		l-3.552,2.064l-3.551,2.064l0.004,0c-2.33,1.453-6.644,4.15-9.655,9.077c-3.161,5.177-3.381,8.816-3.613,12.669l-0.01,3.561
		c0.093,3.064,0.376,12.388,9.94,24.173c9.668,11.915,22.056,19.425,28.712,23.46c-0.519-0.3-0.822-0.801-1.203-1.232
		c0.381,0.432,0.686,0.934,1.208,1.235l2.395,1.383l2.395,1.383l2.395,1.383l2.394,1.382l2.396,1.383l2.394,1.383l2.396,1.383
		l2.394,1.383l2.396,1.383l2.394,1.383c-0.673-0.389-1.121-0.988-1.559-1.595c0.438,0.609,0.889,1.209,1.565,1.598
		c22.334,12.831,43.458,17.43,54.061,19.029c12.496,1.884,20.878,1.236,23.149,0.992c10.598-1.138,14.657-3.256,18.941-5.502
		l-0.004,0.004c11.84-6.88,23.68-13.761,35.518-20.641c0,0,0.006-0.007,0.009-0.009c12.481-7.511,12.995-17.442,13.214-21.685
		l0.011-3.561c-0.058-3.922-0.889-7.59-2.154-10.977c-3.654-9.78-11.043-17.13-14.752-20.805
		C609.427,562.455,608.508,562.169,607.608,561.868z"/>
	<path fill="#888E38" d="M575.598,578.62c0.438-0.425,1.348-1.309,1.847-2.433c-0.02,0.264-0.112,0.516-0.127,0.781
		c-0.03,0.542-0.035,1.267-0.017,1.81c0.025,0.737,0.171,1.715,0.311,2.439c0.561,2.888,1.511,5.515,2.209,7.211
		c2.723,6.613,6.565,12.427,9.309,16.14c11.739,15.886,23.649,24.132,29.703,27.634c-1.418-0.819-4.61,0.588-7.984,3.71
		c-16.205-9.351-32.753-29.23-36.839-44.231C572.31,585.444,573.021,581.005,575.598,578.62z"/>
	<path fill="#888E38" d="M618.834,632.202c2.773,1.523,10.138,5.568,14.983,4.898c-0.594,0.252-1.407,0.597-2.538,1.64
		c-3.625,3.355-10.938,2.653-20.429-2.828C614.225,632.79,617.417,631.383,618.834,632.202z"/>
	<path fill="#888E38" d="M573.718,580.36l1.88-1.74c-2.577,2.385-3.288,6.823-1.586,13.06c4.086,15.001,20.634,34.88,36.839,44.231
		l-1.88,1.74c-16.205-9.351-32.753-29.23-36.839-44.231C570.429,587.183,571.141,582.745,573.718,580.36z"/>
	<path fill="#888E38" d="M631.28,638.74l-1.88,1.74c-3.625,3.355-10.938,2.653-20.429-2.828l1.88-1.74
		C620.341,641.393,627.654,642.094,631.28,638.74z"/>
	<path fill="#888E38" d="M562.774,564.77c6.234-5.495,12.057-6.598,15.844-6.556c7.006,0.078,12.954,1.969,21.945,6.978
		c-1.418-0.819-4.61,0.588-7.984,3.71C578.735,560.91,568.063,559.876,562.774,564.77z"/>
	<path fill="#888E38" d="M560.894,566.51l1.88-1.74c5.289-4.894,15.961-3.86,29.806,4.131l-1.88,1.74
		C576.855,562.65,566.183,561.616,560.894,566.51z"/>
	<path fill="#888E38" d="M629.399,640.479c-1.375,1.335-1.757,2.171-1.857,2.468c0.913-3.386-0.908-17.838-20.574-39.099
		c-5.852-6.327-13.708-12.608-18.129-15.306c-2.394-1.461-6.011-3.668-9.349-4.904c-4.186-1.549-6.086-1.766-8.319-1.636
		c0.545-0.187,1.43-0.624,2.547-1.642c-2.577,2.385-3.288,6.823-1.586,13.06c4.086,15.001,20.634,34.88,36.839,44.231
		c-4.154,3.844-7.012,8.834-6.382,11.144c-18.714-10.804-37.778-33.706-42.499-51.023s6.654-22.613,25.368-11.808
		c18.754,10.828,37.808,33.692,42.53,51.009c4.722,17.317-6.645,22.65-25.398,11.822c-0.63-2.31,2.228-7.3,6.382-11.144
		C618.461,643.133,625.774,643.834,629.399,640.479z"/>
	<path fill="#888E38" d="M584.318,581.785c21.236,12.26,42.837,38.181,48.184,57.795c5.358,19.651-7.539,25.655-28.774,13.394
		c-21.196-12.237-42.797-38.158-48.155-57.809C550.225,575.551,563.122,569.547,584.318,581.785z M602.588,648.795
		c18.754,10.828,30.12,5.495,25.398-11.822c-4.722-17.317-23.776-40.182-42.53-51.009c-18.714-10.804-30.09-5.509-25.368,11.808
		S583.875,637.991,602.588,648.795"/>
	<path fill="#888E38" d="M600.564,565.191c5.154,3.134,13.781,8.379,25.474,20.683c2.892,3.043,5.598,6.306,5.612,6.324l0,0
		c1.505,1.99,3.618,4.563,5.123,6.553c0.738,0.976,1.664,2.319,2.351,3.331c3.942,5.806,6.067,10.045,6.088,10.087
		c4.017,8.064,13.425,26.948-1.101,40.434c3.768-3.486,4.804-9.981,2.315-19.115c-5.985-21.934-30.107-50.879-53.845-64.588
		C595.954,565.779,599.146,564.373,600.564,565.191z"/>
	<path fill="#888E38" d="M642.23,654.344c-8.296,7.313-15.755,7.131-22.58,5.846c-4.441-0.836-14.032-3.954-28.36-15.438
		c-13.14-10.531-23.54-24.501-27.614-31.096c-7.463-12.081-11.032-22.434-10.606-30.771c0.322-6.307,2.955-11.816,7.824-16.376
		c5.289-4.894,15.961-3.86,29.806,4.131c-4.154,3.844-7.012,8.834-6.382,11.144c-21.196-12.237-34.092-6.234-28.744,13.38
		c5.358,19.651,26.959,45.572,48.155,57.809c21.236,12.26,34.132,6.257,28.774-13.394c-5.348-19.614-26.949-45.534-48.184-57.795
		c-0.63-2.31,2.228-7.3,6.382-11.144c23.738,13.708,47.86,42.653,53.845,64.588C647.034,644.363,645.997,650.858,642.23,654.344z"/>
	<path fill="#888E38" d="M644.11,652.604l-1.88,1.74c3.767-3.486,4.804-9.981,2.315-19.115
		c-5.985-21.934-30.107-50.879-53.845-64.588l1.88-1.74c23.738,13.708,47.86,42.653,53.845,64.588
		C648.914,642.623,647.878,649.118,644.11,652.604z"/>
	<g>
		<g>
			<g enable-background="new    ">
				<g>
					<path fill="#687029" d="M291.77,521.654l0.012-4.076c-0.011,3.729,2.451,7.464,7.377,10.308l-0.012,4.076
						C294.221,529.119,291.759,525.384,291.77,521.654z"/>
				</g>
				<g>
					<path fill="#687029" d="M642.315,654.39l-0.012,4.076c-0.01,3.681-2.43,7.356-7.264,10.165l0.012-4.076
						C639.885,661.746,642.305,658.071,642.315,654.39z"/>
				</g>
				<g>
					<polygon fill="#687029" points="635.051,664.555 635.04,668.631 603.229,687.118 603.24,683.042 					"/>
				</g>
				<g>
					<polygon fill="#687029" points="567.895,683.042 567.884,687.118 299.147,531.963 299.159,527.887 					"/>
				</g>
				<g>
					<path fill="#687029" d="M603.24,683.042l-0.012,4.076c-9.73,5.655-25.551,5.655-35.345,0l0.012-4.076
						C577.689,688.697,593.51,688.697,603.24,683.042z"/>
				</g>
				<g>
					<path fill="#687029" d="M634.936,644.082c9.794,5.655,9.846,14.819,0.115,20.473l-31.811,18.487
						c-9.73,5.655-25.551,5.655-35.345,0L299.159,527.887c-9.788-5.651-9.846-14.819-0.115-20.473l31.811-18.487
						c9.73-5.655,25.557-5.651,35.345,0L634.936,644.082z"/>
				</g>
			</g>
		</g>
	</g>
	<path fill="#42430A" d="M372.794,336.963c-24.758,48.001-49.382,96.088-74.755,143.768c-2.768,5.202-6.343,10.406-8.654,15.822
		c0.938-2.199-1.196,2.486-0.815,3.702c0.473,1.508,1.447,1.951,2.482,3.071c5.523,5.973,15.54,10.117,22.37,14.291
		c74.989,45.821,151.289,89.658,227.722,133.014c14.057,7.974,28.126,15.935,42.321,23.663c6.043,3.29,13.909,9.39,20.967,10.172
		c11.876,1.316,17.762-18.199,22.008-26.221c12.641-23.887,25.078-47.882,37.517-71.874c11.825-22.805,26.901-45.934,35.988-69.978
		c5.649-14.949-4.033-24.351-15.616-31.083c-30.306-17.612-60.612-35.224-90.917-52.835c-41.046-23.853-82.092-47.707-123.138-71.56
		c-14.662-8.52-29.323-17.041-43.985-25.561c-6.477-3.764-13.331-8.911-20.514-11.355
		C392.659,319.537,379.945,326.048,372.794,336.963c-4.593,7.01,10.933,7.358,14.59,1.776c1.357-2.072,9.679-3.69,12.564-3.032
		c1.012,0.231,1.992,1.281,2.939,1.708c4.016,1.808,7.848,4.561,11.654,6.772c13.101,7.613,26.202,15.227,39.303,22.84
		c37.827,21.983,75.655,43.966,113.482,65.949c31.726,18.437,63.451,36.874,95.176,55.311c5.472,3.18,11.526,6.011,16.684,9.696
		c13.259,9.47,2.929,23.284-2.632,34.056c-5.66,10.964-11.325,21.925-16.997,32.884c-12.36,23.882-24.737,47.756-37.209,71.58
		c-4.887,9.336-9.779,18.67-14.748,27.962c-1.276,2.386-7.122,11.563-6.834,12.494c-0.174-0.562,10.307-4.46,10.298-3.342
		c0.001-0.073-1.043-0.372-1.089-0.445c-0.338-0.54-2.598-1.239-2.503-1.19c-3.927-2.023-7.821-4.107-11.701-6.217
		c-13.162-7.157-26.21-14.526-39.246-21.908c-72.687-41.163-145.014-83.067-216.593-126.132
		c-10.224-6.151-20.491-12.264-30.514-18.741c-0.839-0.542-5.75-4.762-6.734-4.585c2.387-0.43-2.708,6.85,0.618,4.964
		c1.201-0.681,2.255-3.791,2.907-4.944c23.453-41.48,44.42-84.528,66.293-126.853c4.965-9.607,9.925-19.216,14.882-28.827
		C391.337,331.076,375.907,330.928,372.794,336.963z"/>
	<g opacity="0.41">
		<path fill="#FFFFFF" d="M821.087,525.606c-2.691-7.835-11.908-13.023-19.03-8.793l-64.305,34.563
			c-3.25,1.771-12.058,8.034-13.516,11.437c-5.259,12.276-23.632,56.754-39.287,88.89c-6.926,14.215-21.711,43.723-7.611,36.565
			c48.536-24.64,136.214-70.772,154.192-80.074c3.087-1.597,9.943-7.203,7.941-16.544L821.087,525.606z"/>
		<path fill="#FFFFFF" d="M943.8,396.252c-0.03-0.008-8.208,4.696-10.976,6.037c0.565,2.041,42.574,83.275,42.878,82.512
			c14.012-8.016,27.132-17.206,27.132-17.206S953.679,398.996,943.8,396.252z"/>
		<path fill="#FFFFFF" d="M934.523,455.148c-3.151-5.61-11.353-18.975-17.014-15.916c-17.644,9.537-42.747,24.105-60.683,34.799
			c-8.333,4.968-11.939,15.181-8.516,24.259c10.626,28.177,23.222,74.02,23.727,73.81c0.514-0.213,52.151-30.001,91.525-52.543
			c2.126-1.217,2.899-3.832,1.782-6.012C959.915,502.952,944.565,473.027,934.523,455.148z"/>
		<path fill="#FFFFFF" d="M381.62,335.898c-22.752,44.114-82.279,159.328-83.884,160.254
			c-3.382,1.953,307.74,182.758,311.123,180.805c1.623-0.937,62.561-118.905,84.682-161.802c3.771-7.312,1.966-16.041-3.931-21.336
			c-0.897-0.806-1.876-1.543-2.959-2.172L406.334,328.745c-1.108-0.644-2.256-1.153-3.425-1.538
			C394.805,324.539,385.698,327.993,381.62,335.898z"/>
	</g>
	<path fill="#42430A" d="M825.324,480.732c-8.215-17.078-24-12.933-37.486-5.685c-15.149,8.142-30.297,16.284-45.446,24.427
		c-10.924,5.871-23.905,11.399-29.779,22.914c-11.374,22.299-19.665,46.537-30.118,69.311c-5.311,11.57-11.216,22.881-16.312,34.548
		c-2.148,4.919-9.438,17.922-3.983,23.014c4.604,4.297,13.357-0.117,17.763-2.263c11.294-5.499,22.388-11.451,33.548-17.218
		c24.584-12.703,49.117-25.503,73.641-38.321c15.103-7.894,31.165-14.978,45.708-23.877c16.288-9.966,9.77-24.675,5.667-39.415
		C834.126,512.356,829.725,496.544,825.324,480.732c-1.457-5.236-16.708-1.147-15.251,4.087
		c5.912,21.24,14.672,43.231,18.089,64.984c2.178,13.865-14.3,18.314-24.347,23.568c-17.481,9.14-34.959,18.286-52.45,27.406
		c-19.873,10.362-39.758,20.703-59.687,30.957c-3.894,2.004-7.791,4.004-11.69,5.999c-1.179,0.603-4.386,1.759-5.51,2.814
		c-4.645,4.362,0.969,1.618,1.365,0.664c3.702-8.91,6.11-18.34,10.406-27.266c9.77-20.299,19.09-40.774,28-61.467
		c6.476-15.04,10.327-33.123,25.101-41.855c11.105-6.564,22.82-12.266,34.182-18.372c6.886-3.701,13.772-7.402,20.657-11.103
		c8.044-4.323,10.434-7.659,15.885,3.671C812.566,490.004,827.46,485.173,825.324,480.732z"/>
	<path fill="#42430A" d="M924.477,431.615c-7.152-12.38-12.897-20.351-26.389-12.942c-9.971,5.475-19.853,11.113-29.701,16.806
		c-9.615,5.558-21.711,10.572-29.964,18.061c-15.285,13.871-0.46,37.596,4.512,53.28c3.166,9.987,6.183,20.019,9.189,30.055
		c1.194,3.986,1.82,9.705,4.147,13.225c0.77,1.165,3.61,0.163,4.524-0.327c25.071-13.442,49.427-28.392,74.099-42.55
		c4.853-2.785,18.629-7.162,20.468-13.257c1.37-4.539-3.743-11.127-5.758-15.034C941.418,463.062,933.178,447.212,924.477,431.615
		c-0.822-1.474-6.243,0.594-5.719,1.532c7.64,13.695,14.913,27.592,22.128,41.515c2.092,4.038,8.445,12.128,8.694,16.882
		c0.417,7.959-19.475,15.629-24.61,18.577c-22.473,12.902-44.664,26.527-67.503,38.772c1.508-0.109,3.016-0.218,4.524-0.327
		c-4.469-6.759-5.752-18.636-8.068-26.26c-4.537-14.936-9.498-29.69-14.514-44.466c-7.82-23.041,14.864-31.364,31.495-41.001
		c9.247-5.358,18.95-12.453,28.85-16.375c10.316-4.086,14.066,4.136,19.003,12.682C919.609,434.621,925.003,432.525,924.477,431.615
		z"/>
	<g>
		<path fill="#42430A" d="M939.254,397.167c-3.65,2.03-7.263,4.123-10.976,6.037c-0.291,0.15-1.398,0.67-1.197,1.198
			c5.689,14.958,14.783,29.287,22.137,43.465c4.709,9.078,9.427,18.151,14.216,27.187c1.607,3.031,3.77,10.014,6.694,12.084
			c1.245,0.882,3.784-0.216,4.892-0.862c9.252-5.398,18.337-11.087,27.132-17.206c0.092-0.064,0.863-0.609,0.658-0.895
			c-8.448-11.776-17.117-23.403-25.984-34.867c-6.52-8.429-13.117-16.837-20.194-24.81c-3.712-4.181-7.956-9.972-13.375-12.039
			c-1.309-0.499-6.45,1.606-4.682,2.28c6.875,2.622,12.69,11.65,17.229,17.028c8.436,9.995,16.406,20.391,24.271,30.838
			c4.382,5.821,13.474,14.072,15.575,21.104c1.032,3.455,2.65-0.239-1.113,3.307c-6.507,6.133-16.257,10.534-23.92,15.005
			c1.63-0.287,3.261-0.575,4.892-0.862c-3.569-2.527-6.284-11.496-8.225-15.177c-5.563-10.552-11.059-21.139-16.535-31.736
			c-4.738-9.169-9.479-18.34-14.122-27.558c-0.681-1.353-3.707-5.456-3.469-6.996c0.217-1.399,7.259-4.456,9.421-5.659
			C945.886,396.191,940.662,396.384,939.254,397.167z"/>
	</g>
	<path fill="#687029" d="M1011.78,460.256l-53.374-94.961L704.667,509.629l0,0c-0.749,1.455-3.607,7.003-7.904,15.334
		c-0.859,1.666-1.775,3.444-2.744,5.322c-1.938,3.756-4.085,7.917-6.398,12.396c-12.719,24.637-30.459,58.94-46.093,88.957
		c-9.949,19.102-19.045,36.469-25.452,48.506c-5.492,10.317-9.008,16.719-9.392,16.94c-0.672,0.388-8.391,7.194-20.491,17.999
		c-6.05,5.402-13.195,11.804-21.102,18.903c-5.271,4.733-10.881,9.775-16.731,15.038c-17.549,15.789-37.257,33.561-56.458,50.896
		c-6.4,5.779-12.743,11.509-18.932,17.101c-21.66,19.572-41.421,37.453-55.047,49.802c-11.679,10.585-18.851,17.105-18.851,17.142
		c0,0.009,0.004,0.092,0.011,0.245s0.016,0.375,0.029,0.662c0.026,0.574,0.063,1.409,0.11,2.466
		c0.186,4.23,0.516,12.032,0.826,21.076c0.116,3.392,0.229,6.958,0.33,10.576c0.236,8.441,0.408,17.163,0.406,24.604
		c0,2.126-0.015,4.148-0.046,6.028c-0.048,2.821-0.133,5.323-0.266,7.386c-0.22,3.438-0.57,5.654-1.09,6.077v0
		c-3.271,2.67,104.872-64.551,111.324-68.257c-0.152-53.703,30.211-105.7,62.035-124.069c30.612-17.67,77.175-7.04,76.619,48.589
		c6.06-3.426,121.2-68.513,207.769-118.494c48.088-27.764,105.008-63.386,105.005-64.787c1.639-58.181,29.468-98.62,62.048-117.424
		c29.172-16.838,55.195-14.063,63.382,38.029l60.68-42.452L1150,409.933L1011.78,460.256z M826.986,568.753
		c-17.979,9.302-105.657,55.434-154.193,80.074c-14.099,7.158,0.686-22.35,7.611-36.565c15.655-32.135,34.029-76.614,39.287-88.89
		c1.457-3.403,10.265-9.665,13.516-11.437l64.305-34.563c7.122-4.23,16.339,0.958,19.03,8.793l18.384,66.043
		C836.929,561.549,830.073,567.156,826.986,568.753z M954.249,496.791c-39.374,22.542-91.011,52.33-91.525,52.543
		c-0.505,0.21-13.101-45.633-23.727-73.81c-3.423-9.078,0.182-19.291,8.516-24.259c17.936-10.694,43.039-25.262,60.683-34.799
		c5.661-3.059,13.863,10.306,17.014,15.916c10.042,17.879,25.393,47.804,30.822,58.397
		C957.148,492.958,956.375,495.573,954.249,496.791z M975.222,484.708c-0.304,0.763-42.313-80.471-42.878-82.512
		c2.767-1.341,10.946-6.046,10.976-6.037c9.879,2.744,59.034,71.343,59.034,71.343S989.234,476.692,975.222,484.708z"/>
	<path fill="#888E38" d="M400.472,957.008c0.133-2.063,0.218-4.566,0.266-7.386c0.031-1.88,0.046-3.902,0.046-6.028
		c0.003-7.441-0.17-16.163-0.406-24.604c-0.101-3.617-0.214-7.184-0.33-10.576c-0.309-9.044-0.64-16.847-0.826-21.076
		c-0.047-1.057-0.084-1.892-0.11-2.466c-0.013-0.287-0.022-0.509-0.029-0.662s-0.011-0.236-0.011-0.245
		c0-0.037,7.172-6.557,18.851-17.142c13.626-12.349,33.387-30.23,55.047-49.802c6.189-5.592,12.532-11.322,18.932-17.101
		c19.201-17.336,38.909-35.107,56.458-50.896c5.85-5.263,11.46-10.305,16.731-15.038c7.907-7.099,15.053-13.501,21.102-18.903
		c12.1-10.805,19.819-17.61,20.491-17.999c0.384-0.222,3.9-6.623,9.392-16.94c6.407-12.037,15.503-29.404,25.452-48.506
		c15.634-30.017,33.373-64.32,46.093-88.957c2.313-4.479,4.459-8.639,6.398-12.396c0.969-1.879,1.885-3.656,2.744-5.322
		c4.296-8.331,7.154-13.879,7.904-15.334l0,0l-23.844-13.856c5.896,5.295,7.702,14.024,3.931,21.336
		c-22.121,42.897-83.059,160.864-84.682,161.802c-3.383,1.953-314.505-178.852-311.123-180.805
		c1.604-0.926,61.132-116.14,83.884-160.254c4.078-7.905,13.184-11.359,21.289-8.691l-19.31-11.222
		c-4.797,9.314-95.933,186.273-97.981,187.456c-3.586,2.07-207.614,186.684-207.613,186.881c0.001,0.294,3.636,76.412,0.31,79.119
		c-0.054,0.044-0.074,0.068-0.065,0.075l329.857,191.691c-0.011-0.006,0.011-0.032,0.064-0.074v0
		C399.902,962.662,400.252,960.446,400.472,957.008z"/>
	<polygon fill="#B9C153" points="704.666,509.629 374.811,317.938 628.55,173.603 958.406,365.294 	"/>
	<path fill="#42430A" d="M272.21,874.884c0.017-0.158,0.032-0.331,0.047-0.514c0.019-0.238,0.036-0.495,0.05-0.773
		c0.011-0.214,0.022-0.432,0.031-0.668c0.012-0.309,0.021-0.64,0.029-0.983c0.006-0.256,0.012-0.509,0.016-0.782
		c0.006-0.375,0.008-0.774,0.01-1.176c0.001-0.277,0.004-0.546,0.004-0.835c0-0.468-0.004-0.959-0.008-1.452
		c-0.002-0.252-0.003-0.494-0.005-0.752c-0.008-0.706-0.019-1.429-0.032-2.162c-0.002-0.137-0.005-0.272-0.008-0.41
		c-0.014-0.72-0.03-1.445-0.048-2.171c-0.007-0.271-0.014-0.54-0.022-0.811c-0.014-0.518-0.027-1.037-0.042-1.548
		c-0.01-0.342-0.021-0.676-0.031-1.013c-0.014-0.462-0.029-0.924-0.044-1.372c-0.01-0.304-0.02-0.599-0.031-0.896
		c-0.015-0.431-0.03-0.857-0.045-1.267c-0.011-0.312-0.022-0.616-0.034-0.914c-0.014-0.37-0.028-0.73-0.041-1.074
		c-0.01-0.266-0.021-0.528-0.031-0.776c-0.014-0.35-0.027-0.68-0.04-0.991c-0.009-0.205-0.018-0.421-0.026-0.607
		c-0.01-0.24-0.019-0.448-0.028-0.653c-0.009-0.208-0.019-0.437-0.026-0.606c-0.002-0.047-0.003-0.078-0.005-0.122
		c-0.024-0.527-0.038-0.85-0.038-0.859l0.002-0.003l-103.049-59.886l-0.003,0.002c0,0,0.005,0.12,0.011,0.255
		c0.009,0.191,0.023,0.51,0.04,0.89c0.001,0.027,0.003,0.059,0.004,0.087c0.013,0.296,0.027,0.625,0.043,1.013
		c0.009,0.214,0.019,0.444,0.028,0.683c0.012,0.291,0.024,0.585,0.037,0.909c0.009,0.222,0.018,0.442,0.027,0.678
		c0.016,0.407,0.032,0.826,0.049,1.27c0.01,0.259,0.019,0.516,0.029,0.786c0.015,0.421,0.03,0.852,0.046,1.295
		c0.011,0.298,0.021,0.589,0.031,0.896c0.016,0.475,0.031,0.958,0.046,1.448c0.009,0.298,0.019,0.589,0.028,0.891
		c0.016,0.56,0.031,1.125,0.046,1.693c0.006,0.238,0.013,0.472,0.019,0.711c0.018,0.727,0.034,1.452,0.048,2.172
		c0.002,0.129,0.005,0.257,0.007,0.385c0.014,0.749,0.025,1.488,0.033,2.209c0.002,0.227,0.003,0.44,0.004,0.663
		c0.004,0.518,0.008,1.031,0.009,1.522c0,0.28-0.003,0.539-0.004,0.808c-0.002,0.417-0.004,0.827-0.01,1.215
		c-0.004,0.261-0.01,0.501-0.016,0.746c-0.008,0.354-0.017,0.695-0.029,1.014c-0.009,0.229-0.019,0.439-0.03,0.648
		c-0.015,0.285-0.032,0.546-0.051,0.789c-0.014,0.18-0.029,0.349-0.046,0.504c-0.009,0.086-0.016,0.202-0.026,0.28l103.037,59.878
		C272.184,875.061,272.199,874.988,272.21,874.884z"/>
	<path fill="#F2EDE0" d="M268.276,876.195c0.017-0.158,0.033-0.331,0.047-0.514c0.019-0.238,0.036-0.495,0.05-0.773
		c0.011-0.214,0.022-0.432,0.031-0.668c0.012-0.309,0.021-0.64,0.029-0.983c0.006-0.256,0.012-0.509,0.016-0.782
		c0.006-0.375,0.008-0.774,0.01-1.176c0.001-0.277,0.004-0.546,0.004-0.835c0-0.468-0.004-0.959-0.008-1.452
		c-0.002-0.252-0.003-0.494-0.005-0.752c-0.008-0.706-0.019-1.429-0.033-2.162c-0.002-0.137-0.005-0.272-0.008-0.41
		c-0.014-0.72-0.03-1.445-0.048-2.171c-0.007-0.271-0.014-0.54-0.022-0.811c-0.014-0.518-0.027-1.037-0.042-1.548
		c-0.01-0.342-0.021-0.676-0.031-1.013c-0.014-0.462-0.029-0.924-0.044-1.372c-0.01-0.304-0.02-0.599-0.031-0.896
		c-0.015-0.431-0.03-0.857-0.045-1.267c-0.011-0.312-0.022-0.616-0.034-0.914c-0.014-0.37-0.028-0.73-0.041-1.074
		c-0.01-0.266-0.021-0.528-0.031-0.776c-0.014-0.35-0.027-0.68-0.04-0.991c-0.009-0.205-0.018-0.421-0.026-0.607
		c-0.01-0.24-0.019-0.448-0.028-0.653c-0.009-0.208-0.019-0.437-0.026-0.606c-0.002-0.047-0.003-0.078-0.005-0.122
		c-0.024-0.527-0.038-0.85-0.038-0.859l0.002-0.003l-103.049-59.886l-0.003,0.002c0,0,0.005,0.12,0.011,0.255
		c0.009,0.191,0.023,0.51,0.04,0.89c0.001,0.027,0.003,0.059,0.004,0.087c0.013,0.296,0.027,0.625,0.043,1.013
		c0.009,0.214,0.019,0.444,0.028,0.683c0.012,0.291,0.024,0.585,0.037,0.909c0.009,0.222,0.018,0.442,0.027,0.678
		c0.016,0.407,0.032,0.826,0.049,1.27c0.01,0.259,0.019,0.516,0.029,0.786c0.015,0.421,0.03,0.852,0.046,1.295
		c0.011,0.298,0.021,0.589,0.031,0.896c0.016,0.475,0.031,0.958,0.046,1.448c0.009,0.298,0.019,0.589,0.028,0.891
		c0.016,0.56,0.031,1.125,0.046,1.693c0.006,0.238,0.013,0.472,0.019,0.711c0.018,0.727,0.034,1.452,0.048,2.172
		c0.003,0.129,0.005,0.257,0.008,0.385c0.014,0.749,0.025,1.488,0.033,2.209c0.002,0.227,0.003,0.44,0.004,0.663
		c0.004,0.518,0.008,1.031,0.009,1.522c0,0.28-0.003,0.539-0.004,0.808c-0.002,0.417-0.004,0.827-0.01,1.215
		c-0.004,0.261-0.01,0.501-0.016,0.746c-0.008,0.354-0.017,0.695-0.029,1.014c-0.009,0.229-0.019,0.439-0.03,0.648
		c-0.015,0.285-0.032,0.546-0.051,0.789c-0.014,0.18-0.029,0.349-0.046,0.504c-0.009,0.086-0.016,0.202-0.026,0.28l103.037,59.878
		C268.25,876.372,268.265,876.299,268.276,876.195z"/>
	<path fill="#42430A" d="M358.718,870.061c-3.847-3.098-7.971-5.775-12.216-8.258c-4.221-1.928-8.585-3.69-12.915-5.492
		c-8.235-0.658-16.441,0.415-23.812,3.75c-5.944,2.689-1.206,21.443,0.35,25.282c6.166,15.193,59.724,47.906,66.729,21.088
		C380.598,892.096,369.028,878.365,358.718,870.061z"/>
	<path fill="#F2EDE0" d="M351.035,872.093c-3.37-2.714-6.982-5.059-10.701-7.234c-3.697-1.689-7.52-3.233-11.312-4.811
		c-7.213-0.577-14.401,0.364-20.858,3.284c-5.207,2.355-1.057,18.783,0.306,22.146c5.401,13.308,52.314,41.963,58.451,18.472
		C370.201,891.394,360.066,879.367,351.035,872.093z"/>
	<path fill="#F2EDE0" d="M50.004,784.401c-0.001,0.174-0.002,0.347-0.003,0.518c-0.048,5.925,3.092,11.372,8.23,14.323
		c48.628,27.937,247.35,139.606,320.154,181.431c9.962,5.723,22.435-1.177,22.89-12.656l0.018-0.464
		c0.227-5.658-2.676-10.947-7.575-13.786c-45.138-26.157-240.342-137.959-319.02-183.532
		C63.765,763.902,50.063,771.767,50.004,784.401z"/>
	<path fill="#FFFFFF" d="M55.185,775.897c105.325,67.341,216.1,127.645,324.982,189.033c5.305,2.991,21.953-4.914,18.129-7.07
		C289.414,896.473,178.639,836.168,73.314,768.827C68.205,765.561,51.223,773.364,55.185,775.897L55.185,775.897z"/>
	<path fill="#42430A" d="M952.326,627.866c-70.425,45.14-144.328,85.422-216.515,127.655c-8.766,5.128-61.42,45.171-70.934,41.465
		c-0.886-0.345-29.273-102.285-28.09-112.992c3.438-31.109,34.25-72.15,47.69-100.414c12.663-26.63,21.141-55.132,43.135-73.312
		c14.18-11.72,80.649-49.946,89.418-45.625c13.353,6.58,24.184,68.299,27.638,83.216c10.016,43.257,13.384,93.104,9.068,136.965
		c-0.283,2.879,5.628,2.024,5.875-0.491c7.663-77.873-8.892-155.386-39.169-226.919c-0.648-1.53-2.891-1.554-4.17-0.847
		c-30.063,16.632-78.13,31.987-101.888,56.37c-15.256,15.657-23.288,44.519-32.722,64.353
		c-13.657,28.713-49.862,76.705-51.598,108.639c-1.839,33.817,26.19,79.584,32.548,113.824c0.306,1.649,3.181,1.424,4.17,0.847
		c96.445-56.317,195.32-109.964,289.357-170.239C959.446,628.242,954.624,626.393,952.326,627.866L952.326,627.866z"/>
	<path fill="#42430A" d="M820.971,458.706c26.572-17.72,54.97-33.011,82.615-48.971c3.821-2.206,10.092-7.611,14.494-8.35
		c7.772-1.305-2.052-2.582-1.011-1.611c5.172,4.82,9.03,19.93,12.305,26.356c12.241,24.016,30.095,48.148,39.528,73.306
		c6.664,17.771,6.898,39.983,9.737,58.864c0.246,1.637,6.097,0.338,5.812-1.557c-3.605-23.974-3.893-48.489-15.877-69.662
		c-9.155-16.175-17.825-32.655-26.443-49.12c-3.502-6.69-21.476-31.588-19.141-39.833c0.538-1.901-4.053-0.581-4.641-0.244
		c-34.134,19.583-69.2,38.344-101.954,60.186C813.826,459.783,819.646,459.59,820.971,458.706L820.971,458.706z"/>
	<path fill="#B9C153" d="M820.101,614.82c2.876-2.161,5.405-4.787,8.503-6.636c3.206-1.914,2.397-3.604-1.031-3.847
		c-4.376-0.31-9.959,1.438-13.7,3.671c-4.104,2.45-7.437,5.693-11.237,8.549c-3.565,2.679,3.179,2.891,4.473,2.791
		C811.534,619.004,816.516,617.514,820.101,614.82L820.101,614.82z"/>
	<path fill="#B9C153" d="M962.19,536.025c0.99-1.098,2.045-2.129,3.167-3.091c3.178-2.908-2.855-2.916-4.473-2.791
		c-4.076,0.316-9.846,1.648-12.992,4.527c-1.122,0.963-2.177,1.993-3.167,3.091c-2.903,3.021,2.622,2.934,4.473,2.791
		C953.031,540.255,959.344,538.986,962.19,536.025L962.19,536.025z"/>
	<path fill="#687029" d="M649.269,667.694l9.229-5.363c0.42-0.244,1.018-0.216,1.786,0.227l-9.229,5.363
		C650.287,667.478,649.688,667.45,649.269,667.694z"/>
	<polygon fill="#4B4C06" points="651.055,667.921 660.283,662.558 682.541,674.696 673.312,680.06 	"/>
	<path fill="#4B4C06" d="M678.215,669.101l9.229-5.363c1.855-1.078,4.144-1.148,6.7,0.328l-9.229,5.363
		C682.359,667.953,680.07,668.022,678.215,669.101z"/>
	<path fill="#4B4C06" d="M733.948,725.703l-9.229,5.363c2.195-1.276,3.561-3.979,3.572-7.814l9.229-5.363
		C737.509,721.724,736.143,724.427,733.948,725.703z"/>
	<polygon fill="#4B4C06" points="728.332,708.554 737.561,703.191 737.52,717.889 728.291,723.252 	"/>
	<polygon fill="#4B4C06" points="684.915,669.429 694.144,664.065 725.378,682.098 716.149,687.462 	"/>
	<path fill="#4B4C06" d="M716.149,687.462l9.229-5.363c6.722,3.881,12.205,13.378,12.183,21.092l-9.229,5.363
		C728.354,700.84,722.871,691.343,716.149,687.462z"/>
	<path fill="#42430A" d="M716.149,687.462c6.722,3.881,12.205,13.378,12.183,21.092l-0.042,14.698
		c-0.022,7.724-5.541,10.859-12.263,6.979l-31.234-18.033c-6.713-3.876-11.523-17.642-11.501-25.365l-22.605-13.407
		c-3.075-2.276-2.743-7.299,0.367-5.504l22.257,12.138c0.022-7.724,4.89-14.507,11.603-10.631L716.149,687.462z"/>
	<path fill="#888E38" d="M976.412,634.424c0.596-26.927,5.542-52.906,20.515-75.805c7.484-11.447,17.427-23.853,29.927-30.03
		c24.763-12.235,49.146,1.321,58.372,25.447c3.33,8.707,22.608,3.264,19.374-5.191c-14.58-38.124-54.062-51.234-88.592-30.733
		c-41.097,24.4-58.214,72.277-59.222,117.798C956.563,645.99,976.219,643.144,976.412,634.424L976.412,634.424z"/>
	<path fill="#888E38" d="M521.538,891.005c-7.45-33.382,8.009-72.278,30.823-95.894c18.531-19.182,45.165-33.04,70.311-16.175
		c12.566,8.428,20.11,24.152,23.26,38.494c1.782,8.115,21.204,3.138,19.374-5.191c-10.207-46.472-57.023-69.885-98.737-46.189
		c-43.145,24.508-75.662,79.709-64.405,130.146C503.975,904.313,523.394,899.323,521.538,891.005L521.538,891.005z"/>
	<path fill="#FFFFFF" d="M75.628,691.346c-1.97-1.146-4.55-0.907-6.057,0.802c-2.41,2.734-0.18,5.161,0.665,5.652
		c109.952,63.897,216.718,120.859,326.669,184.756C399.236,883.911,186.385,755.783,75.628,691.346z"/>
	<path fill="#FFFFFF" d="M629.576,178.655c-80.041,46.008-160.082,92.016-240.123,138.023c-0.439,0.253-1.173,0.692-1.172,1.3
		c0.001,1.101,0.003,2.203,0.004,3.304c0.089,0.1,0.177,0.2,0.266,0.299c61.543,35.168,123.087,70.335,184.63,105.503
		c2.318,1.324,10.05-2.684,9.156-3.194c-36.334-20.762-72.668-41.525-109.002-62.287c-20.032-11.447-46.678-21.576-64.197-36.684
		c-13.076-11.276-12.256-3.147-1.489-14.475c12.026-12.653,37.65-21.641,52.677-30.279c25.793-14.826,51.585-29.651,77.378-44.477
		c33.072-19.01,66.143-38.019,99.215-57.029C640.852,176.397,631.249,177.693,629.576,178.655L629.576,178.655z"/>
	<path fill="#42430A" d="M385.695,860.132l-1.629-0.915L97.13,697.931l198.75-181.419l1.663,0.946l289.536,164.938L385.695,860.132z
		 M106.053,696.909l278.964,156.804l193.058-170.391L296.599,522.979L106.053,696.909z"/>
	<path fill="none" stroke="#0A597C" stroke-width="0.25" stroke-miterlimit="10" d="M1126.18,398.407"/>
	<path fill="none" stroke="#0A597C" stroke-width="0.25" stroke-miterlimit="10" d="M1001.631,445.584"/>
	<path fill="none" stroke="#0A597C" stroke-width="0.25" stroke-miterlimit="10" d="M769.516,256.873"/>
	<line fill="#FFFFFF" x1="401.917" y1="379.889" x2="434.573" y2="569.782"/>
	<line fill="#FFFFFF" x1="457.554" y1="445.203" x2="484.163" y2="602.438"/>
	<line fill="#FFFFFF" x1="505.934" y1="407.708" x2="537.381" y2="566.153"/>
	<line fill="#FFFFFF" x1="745.416" y1="596.391" x2="756.302" y2="552.849"/>
	<line fill="#FFFFFF" x1="768.397" y1="578.248" x2="779.282" y2="534.706"/>
	<line fill="#FFFFFF" x1="873.624" y1="532.287" x2="889.347" y2="471.812"/>
	<line fill="#FFFFFF" x1="905.071" y1="497.211" x2="914.747" y2="458.507"/>
	<line fill="#FFFFFF" x1="974.013" y1="473.021" x2="978.851" y2="447.622"/>
	<line fill="#FFFFFF" x1="957.08" y1="435.527" x2="959.499" y2="410.127"/>
	<path fill="#FFFFFF" stroke="#FFFFFF" stroke-width="0.75" stroke-miterlimit="10" d="M321.306,862.336
		c0,0,3.873,26.341,11.471,35.264"/>
	<path fill="#FFFFFF" stroke="#FFFFFF" stroke-width="0.75" stroke-miterlimit="10" d="M341.776,873.303
		c0,0,2.082,18.91,10.616,31.032"/>
	<g>
		<path fill="#F2EDE0" d="M695.459,628.641c5.199-12.7,10.442-25.381,15.75-38.036c2.66-6.325,5.347-12.639,8.095-18.929
			c1.373-3.146,2.769-6.28,4.253-9.386c0.418-0.764,0.757-1.557,1.255-2.295c0.561-0.75,1.183-1.341,1.84-1.923
			c1.316-1.144,2.723-2.149,4.155-3.109c2.872-1.912,5.844-3.642,8.878-5.28l9.061-4.875l18.149-9.709l9.083-4.839l9.123-4.764
			l18.246-9.528l0.035-0.018l0.03-0.005c2.267-0.415,4.573-0.466,6.838-0.119c1.129,0.18,2.243,0.487,3.285,0.963
			c1.04,0.478,1.994,1.148,2.756,2l-0.074,0.068c-0.779-0.815-1.735-1.441-2.767-1.876c-1.035-0.433-2.134-0.698-3.246-0.84
			c-1.112-0.145-2.239-0.167-3.359-0.113c-1.117,0.063-2.245,0.184-3.328,0.407l0.064-0.024l-18.089,9.822l-9.045,4.911
			l-9.084,4.836l-18.186,9.641l-9.107,4.8c-3.018,1.593-5.993,3.302-8.845,5.173c-1.422,0.939-2.819,1.924-4.1,3.024
			c-0.631,0.546-1.255,1.149-1.729,1.77c-0.467,0.68-0.815,1.473-1.225,2.209c-1.494,3.075-2.912,6.199-4.304,9.332
			c-2.792,6.264-5.51,12.564-8.226,18.863c-5.421,12.605-10.777,25.239-16.09,37.89L695.459,628.641z"/>
	</g>
	<g>
		<path fill="#F2EDE0" d="M848.264,498.31c0,0-0.161-0.35-0.377-1.037c-0.225-0.682-0.506-1.703-0.714-3.03
			c-0.235-1.323-0.325-2.964-0.195-4.833c0.103-1.874,0.613-3.964,1.522-6.087c0.874-2.149,2.355-4.232,4.191-6.136
			c0.474-0.464,0.955-0.935,1.441-1.412c0.538-0.417,1.082-0.838,1.632-1.265c1.078-0.894,2.301-1.6,3.478-2.417
			c2.405-1.567,4.926-3.141,7.497-4.706c2.574-1.564,5.197-3.14,7.837-4.686c5.268-3.112,10.555-6.191,15.567-8.978
			c2.503-1.399,4.913-2.768,7.229-4.013c2.315-1.244,4.504-2.421,6.525-3.507c2.031-1.067,3.892-2.045,5.542-2.912
			c1.651-0.865,3.095-1.609,4.292-2.209c2.39-1.206,3.755-1.895,3.755-1.895l0.047,0.088c0,0-5.281,3.09-13.254,7.624
			c-1.995,1.131-4.156,2.355-6.442,3.651c-2.275,1.314-4.714,2.628-7.208,4.04c-4.995,2.809-10.324,5.806-15.652,8.802
			c-2.656,1.513-5.295,3.054-7.884,4.584c-2.59,1.534-5.114,3.067-7.532,4.6c-1.187,0.802-2.424,1.498-3.483,2.357
			c-0.546,0.412-1.085,0.819-1.618,1.222c-0.484,0.46-0.962,0.913-1.433,1.361c-1.83,1.836-3.316,3.852-4.207,5.947
			c-0.925,2.068-1.464,4.118-1.595,5.966c-0.159,1.842-0.097,3.471,0.115,4.786c0.184,1.32,0.447,2.338,0.66,3.019
			c0.203,0.685,0.357,1.034,0.357,1.034L848.264,498.31z"/>
	</g>
</g>
</svg>
