<?xml version="1.0"?><svg fill="#000000" xmlns="http://www.w3.org/2000/svg"  viewBox="0 0 50 50" width="100px" height="100px">    <path d="M 28.880859 2 C 17.510859 2 8.0607813 10.370781 6.3007812 21.300781 C 7.0007813 20.780781 7.780625 20.279844 8.640625 19.839844 C 10.930625 10.749844 19.140859 4 28.880859 4 C 33.200859 4 37.300547 5.2997656 40.810547 7.7597656 L 39.580078 9.3398438 C 36.430078 7.1498438 32.750859 6 28.880859 6 C 20.610859 6 13.569531 11.379844 11.019531 18.839844 C 11.769531 18.589844 12.560625 18.39 13.390625 18.25 C 15.990625 12.23 21.950859 8 28.880859 8 C 32.640859 8 36.190156 9.2195312 39.160156 11.519531 L 39.949219 12.130859 L 43.619141 7.390625 L 42.830078 6.7695312 C 38.800078 3.6495313 33.980859 2 28.880859 2 z M 47.458984 17.65625 L 45.400391 19.199219 C 41.421724 22.183219 38.74926 24 33.691406 24 C 30.836955 24 28.417929 23.066119 25.720703 22.0625 C 23.023477 21.058881 20.054694 20 16.285156 20 C 7.5244254 20 3.1367188 27.494141 3.1367188 27.494141 L 2.0703125 29.316406 L 4.15625 28.988281 C 8.3379873 28.327483 11.240222 28 14.238281 28 C 18.700574 28 21.322226 28.941119 24 29.9375 C 26.677774 30.933881 29.431653 32 33.689453 32 C 39.167061 32 42.604917 28.978833 44.521484 26.046875 C 46.438052 23.114917 46.982422 20.185547 46.982422 20.185547 L 47.458984 17.65625 z M 16.285156 22 C 19.682618 22 22.345664 22.941119 25.023438 23.9375 C 27.701211 24.933881 30.402857 26 33.691406 26 C 38.064178 26 41.05536 24.438508 44.089844 22.394531 C 43.760367 23.202793 43.455506 24.023239 42.847656 24.953125 C 41.168974 27.521167 38.450845 30 33.689453 30 C 29.757253 30 27.394492 29.066119 24.697266 28.0625 C 22.000039 27.058881 18.989989 26 14.238281 26 C 11.824483 26 9.1278439 26.38092 6.2578125 26.777344 C 7.9389959 24.850141 11.175392 22 16.285156 22 z M 12.759766 30.029297 C 12.079766 30.049297 11.400937 30.100156 10.710938 30.160156 C 12.950938 38.140156 20.250859 44 28.880859 44 C 32.750859 44 36.430078 42.850391 39.580078 40.650391 L 40.810547 42.240234 C 37.300547 44.700234 33.200859 46 28.880859 46 C 19.220859 46 11.059219 39.359141 8.6992188 30.369141 C 8.0492187 30.439141 7.3892188 30.530625 6.6992188 30.640625 C 9.1992188 40.600625 18.200859 48 28.880859 48 C 33.980859 48 38.809844 46.350703 42.839844 43.220703 L 43.630859 42.609375 L 39.949219 37.869141 L 39.160156 38.480469 C 36.190156 40.780469 32.640859 42 28.880859 42 C 21.310859 42 14.889766 36.949297 12.759766 30.029297 z"/></svg>